<svg width="61" height="76" viewBox="0 0 61 76" fill="none" xmlns="http://www.w3.org/2000/svg">
<g clip-path="url(#clip0_42_18)">
<path d="M44.0001 17.0001C58.029 16.374 60.5245 30.4024 53.5002 41.0002C57.211 49.7058 58.7174 54.9419 54.0002 64.0001C58.0105 68.5991 54.576 78.3527 54.4797 78.6045M17.5 16.5C3.47111 15.874 -0.524118 30.4024 6.50016 41.0002C2.78934 49.7059 1.78304 54.9419 6.50029 64.0001C2.48994 68.5991 5.40385 78.3527 5.50016 78.6045" stroke="black" stroke-width="5"/>
<path d="M49.8421 34.8764C50.381 36.6814 49.9185 38.4131 48.1512 38.9407C46.384 39.4683 44.5146 38.4328 43.9757 36.6278C43.4368 34.8228 44.4326 32.9319 46.1999 32.4043C47.9671 31.8767 49.3032 33.0715 49.8421 34.8764Z" fill="black"/>
<path d="M27.3223 38.9499C27.8633 39.7463 28.5531 40.6266 27.8246 41.1214C27.0961 41.6163 26.3081 41.4328 25.371 40.7134C24.83 39.917 24.4565 38.7797 25.5126 38.3007C26.2143 37.9825 26.7813 38.1534 27.3223 38.9499Z" fill="black"/>
<path d="M33.1695 38.9499C32.6285 39.7463 31.9391 40.6269 32.6617 41.1177C33.3842 41.6085 34.1686 41.4226 35.1032 40.7014C35.6441 39.905 36.0199 38.7693 34.9715 38.2955C34.2749 37.9808 33.7104 38.1534 33.1695 38.9499Z" fill="black"/>
<path d="M11.1579 34.9133C10.619 36.7183 11.0815 38.45 12.8488 38.9776C14.616 39.5052 16.4854 38.4696 17.0243 36.6647C17.5632 34.8597 16.5674 32.9688 14.8001 32.4412C13.0329 31.9136 11.6968 33.1083 11.1579 34.9133Z" fill="black"/>
<path d="M16 15.6451C14.2285 13.0401 12.9998 9.03287 10.7805 6.81361C9.81646 5.84956 8.85614 4.0952 7.549 3.72173C6.87704 3.52974 5.98257 3.02356 5.19517 3.02356C4.78354 3.02356 4.24884 4.75665 4.03821 5.1779C2.07528 9.10377 3.41184 15.2554 5.19517 18.8221" stroke="black" stroke-width="5" stroke-linecap="round"/>
<path d="M44.5 16.6451C46.2715 14.0401 46.7527 9.03287 48.9719 6.81361C49.936 5.84956 50.8963 4.0952 52.2034 3.72173C52.8754 3.52974 53.7699 3.02356 54.5573 3.02356C54.9689 3.02356 55.5036 4.75665 55.7142 5.1779C57.6772 9.10377 56.3406 15.2554 54.5573 18.8221" stroke="black" stroke-width="5" stroke-linecap="round"/>
<path d="M42.5 41.6451C42.5 47.2829 37.2984 52.1451 30.5 52.1451C23.7016 52.1451 18.5 47.2829 18.5 41.6451C18.5 38.8939 19.702 37.1239 21.7085 35.9563C23.821 34.7271 26.888 34.1451 30.5 34.1451C34.112 34.1451 37.179 34.7271 39.2915 35.9563C41.298 37.1239 42.5 38.8939 42.5 41.6451Z" stroke="black" stroke-width="3"/>
<path d="M30.5977 42.6451C30.5977 43.3469 30.6118 43.961 30.2064 44.5373C30.0837 44.7117 29.9561 44.8775 29.8531 45.0626C29.7144 45.3119 29.2177 45.3845 28.9945 45.4625C28.7343 45.5534 28.4365 45.5708 28.1657 45.5998C27.7159 45.648 27.1958 45.7138 26.7799 45.4625C26.4168 45.2432 26 45.0457 26 44.5254M30.7447 44.418C31.0065 44.7415 31.2032 45.0327 31.5517 45.2745C31.9425 45.5456 32.377 45.4924 32.8234 45.4924H33.5082C33.7513 45.4924 33.9666 45.2499 34.1794 45.1582C34.5737 44.988 34.8255 44.6939 35 44.3106" stroke="black" stroke-width="2" stroke-linecap="round"/>
<path d="M13.9165 11.2973C13.9165 9.68097 15.8574 7.90509 16.9574 7.10481C17.7515 6.52706 18.5609 6.74874 19.3805 7.09369C19.7828 7.26304 21.0076 8.58504 21.0409 7.89437C21.064 7.41617 21.6667 6.83091 21.9097 6.47094C22.4279 5.70347 23.0413 4.60938 23.908 4.31354C26.366 3.47458 29.0865 3.17873 31.5827 3.93544C34.1507 4.71392 36.8783 5.72718 38.1665 8.69505C38.4205 9.28028 38.5546 8.53052 38.9774 8.33919C39.7603 7.98491 40.5094 7.50822 41.3715 7.49403C42.359 7.47778 43.6088 7.34677 44.2386 8.3948C44.8735 9.45114 45.0935 10.5902 45.6288 11.6865C46.0406 12.5298 45.8894 13.5393 45.8894 14.5" stroke="black" stroke-width="5" stroke-linecap="round"/>
<path d="M16.5068 17.2698C17.2147 18.9511 16.9875 21.0136 18.2794 22.4704C19.6366 24.0009 22.4062 24.2998 24.2827 24.4185C26.5953 24.5649 28.6849 24.5239 30.7124 23.2898C31.1851 23.0021 31.3332 22.643 31.5568 22.1694C31.6955 21.8758 31.7603 21.1563 32.0083 21.0323" stroke="black" stroke-width="5" stroke-linecap="round"/>
<path d="M32.1587 21.6343C32.6352 21.7402 33.0434 22.466 33.5132 22.6878C34.4168 23.1145 36.0398 23.0806 37.0165 22.9721C38.6172 22.7942 40.0738 22.2586 41.5064 21.5423C41.9688 21.3111 42.628 21.0413 42.9947 20.6644C43.4184 20.229 43.5912 19.5866 43.8977 19.0758" stroke="black" stroke-width="5" stroke-linecap="round"/>
</g>
<defs>
<clipPath id="clip0_42_18">
<rect width="61" height="76" fill="white"/>
</clipPath>
</defs>
</svg>
